inDegrees=no
DataType=double
version=3
OpenSimVersion=4.4-2022-10-11-798caa840
endheader
time	elv_angle	shoulder_elv	shoulder_rot	elbow_flexion	pro_sup	deviation	flexion
3.603127715030408	0	1.48352986419518	0	1.598006958217192	0	0	0
3.607298001737619	0	1.48352986419518	0	1.59559341051371	0	0	0
3.611468288444831	0	1.48352986419518	0	1.593163394457125	0	0	0
3.615638575152042	0	1.48352986419518	0	1.590717088832957	0	0	0
3.619808861859253	0	1.48352986419518	0	1.588254674775641	0	0	0
3.623979148566464	0	1.48352986419518	0	1.585776335734738	0	0	0
3.628149435273675	0	1.48352986419518	0	1.583282257441135	0	0	0
3.632319721980886	0	1.48352986419518	0	1.580772627873247	0	0	0
3.636490008688098	0	1.48352986419518	0	1.578247637223218	0	0	0
3.640660295395309	0	1.48352986419518	0	1.575707477863127	0	0	0
3.64483058210252	0	1.48352986419518	0	1.573152344311189	0	0	0
3.649000868809731	0	1.48352986419518	0	1.570582433197957	0	0	0
3.653171155516942	0	1.48352986419518	0	1.567997943232524	0	0	0
3.657341442224153	0	1.48352986419518	0	1.56539907516873	0	0	0
3.661511728931364	0	1.48352986419518	0	1.562786031771358	0	0	0
3.665682015638575	0	1.48352986419518	0	1.560159017782341	0	0	0
3.669852302345786	0	1.48352986419518	0	1.557518239886963	0	0	0
3.674022589052997	0	1.48352986419518	0	1.554863906680064	0	0	0
3.678192875760208	0	1.48352986419518	0	1.552196228632239	0	0	0
3.68236316246742	0	1.48352986419518	0	1.549515418056042	0	0	0
3.686533449174631	0	1.48352986419518	0	1.546821689072188	0	0	0
3.690703735881842	0	1.48352986419518	0	1.544115257575759	0	0	0
3.694874022589053	0	1.48352986419518	0	1.541396341202403	0	0	0
3.699044309296264	0	1.48352986419518	0	1.538665159294535	0	0	0
3.703214596003475	0	1.48352986419518	0	1.535921932867546	0	0	0
3.707384882710687	0	1.48352986419518	0	1.533166884575999	0	0	0
3.711555169417898	0	1.48352986419518	0	1.530400238679835	0	0	0
3.715725456125109	0	1.48352986419518	0	1.527622221010577	0	0	0
3.71989574283232	0	1.48352986419518	0	1.524833058937525	0	0	0
3.724066029539531	0	1.48352986419518	0	1.52203298133397	0	0	0
3.728236316246742	0	1.48352986419518	0	1.519222218543387	0	0	0
3.732406602953953	0	1.48352986419518	0	1.516401002345644	0	0	0
3.736576889661164	0	1.48352986419518	0	1.513569565923197	0	0	0
3.740747176368375	0	1.48352986419518	0	1.510728143827304	0	0	0
3.744917463075586	0	1.48352986419518	0	1.507876971944216	0	0	0
3.749087749782797	0	1.48352986419518	0	1.505016287461385	0	0	0
3.753258036490009	0	1.48352986419518	0	1.502146328833668	0	0	0
3.75742832319722	0	1.48352986419518	0	1.499267335749527	0	0	0
3.761598609904431	0	1.48352986419518	0	1.496379549097231	0	0	0
3.765768896611642	0	1.48352986419518	0	1.493483210931063	0	0	0
3.769939183318853	0	1.48352986419518	0	1.490578564437515	0	0	0
3.774109470026064	0	1.48352986419518	0	1.4876658539015	0	0	0
3.778279756733276	0	1.48352986419518	0	1.484745324672545	0	0	0
3.782450043440487	0	1.48352986419518	0	1.481817223131001	0	0	0
3.786620330147698	0	1.48352986419518	0	1.478881796654242	0	0	0
3.790790616854909	0	1.48352986419518	0	1.475939293582869	0	0	0
3.79496090356212	0	1.48352986419518	0	1.472989963186911	0	0	0
3.799131190269331	0	1.48352986419518	0	1.470034055632028	0	0	0
3.803301476976542	0	1.48352986419518	0	1.467071821945717	0	0	0
3.807471763683753	0	1.48352986419518	0	1.464103513983508	0	0	0
3.811642050390964	0	1.48352986419518	0	1.461129384395173	0	0	0
3.815812337098176	0	1.48352986419518	0	1.458149686590926	0	0	0
3.819982623805387	0	1.48352986419518	0	1.455164674707621	0	0	0
3.824152910512598	0	1.48352986419518	0	1.452174603574966	0	0	0
3.828323197219809	0	1.48352986419518	0	1.449179728681713	0	0	0
3.83249348392702	0	1.48352986419518	0	1.446180306141869	0	0	0
3.836663770634231	0	1.48352986419518	0	1.443176592660895	0	0	0
3.840834057341442	0	1.48352986419518	0	1.440168845501909	0	0	0
3.845004344048653	0	1.48352986419518	0	1.43715732245189	0	0	0
3.849174630755865	0	1.48352986419518	0	1.434142281787879	0	0	0
3.853344917463076	0	1.48352986419518	0	1.431123982243181	0	0	0
3.857515204170287	0	1.48352986419518	0	1.428102682973571	0	0	0
3.861685490877498	0	1.48352986419518	0	1.425078643523491	0	0	0
3.865855777584709	0	1.48352986419518	0	1.422052123792261	0	0	0
3.87002606429192	0	1.48352986419518	0	1.419023384000271	0	0	0
3.874196350999132	0	1.48352986419518	0	1.415992684655192	0	0	0
3.878366637706343	0	1.48352986419518	0	1.412960286518175	0	0	0
3.882536924413554	0	1.48352986419518	0	1.409926450570055	0	0	0
3.886707211120765	0	1.48352986419518	0	1.406891437977551	0	0	0
3.890877497827976	0	1.48352986419518	0	1.403855510059472	0	0	0
3.895047784535187	0	1.48352986419518	0	1.400818928252917	0	0	0
3.899218071242398	0	1.48352986419518	0	1.39778195407948	0	0	0
3.903388357949609	0	1.48352986419518	0	1.394744849111448	0	0	0
3.90755864465682	0	1.48352986419518	0	1.39170787493801	0	0	0
3.911728931364031	0	1.48352986419518	0	1.388671293131455	0	0	0
3.915899218071242	0	1.48352986419518	0	1.385635365213376	0	0	0
3.920069504778454	0	1.48352986419518	0	1.382600352620872	0	0	0
3.924239791485665	0	1.48352986419518	0	1.379566516672752	0	0	0
3.928410078192876	0	1.48352986419518	0	1.376534118535735	0	0	0
3.932580364900087	0	1.48352986419518	0	1.373503419190657	0	0	0
3.936750651607298	0	1.48352986419518	0	1.370474679398666	0	0	0
3.940920938314509	0	1.48352986419518	0	1.367448159667436	0	0	0
3.94509122502172	0	1.48352986419518	0	1.364424120217357	0	0	0
3.949261511728932	0	1.48352986419518	0	1.361402820947746	0	0	0
3.953431798436143	0	1.48352986419518	0	1.358384521403049	0	0	0
3.957602085143354	0	1.48352986419518	0	1.355369480739037	0	0	0
3.961772371850565	0	1.48352986419518	0	1.352357957689018	0	0	0
3.965942658557776	0	1.48352986419518	0	1.349350210530032	0	0	0
3.970112945264987	0	1.48352986419518	0	1.346346497049058	0	0	0
3.974283231972198	0	1.48352986419518	0	1.343347074509214	0	0	0
3.978453518679409	0	1.48352986419518	0	1.340352199615961	0	0	0
3.98262380538662	0	1.48352986419518	0	1.337362128483306	0	0	0
3.986794092093831	0	1.48352986419518	0	1.334377116600002	0	0	0
3.990964378801042	0	1.48352986419518	0	1.331397418795754	0	0	0
3.995134665508254	0	1.48352986419518	0	1.328423289207419	0	0	0
3.999304952215465	0	1.48352986419518	0	1.32545498124521	0	0	0
4.003475238922676	0	1.48352986419518	0	1.322492747558899	0	0	0
4.007645525629887	0	1.48352986419518	0	1.319536840004017	0	0	0
4.011815812337098	0	1.48352986419518	0	1.316587509608058	0	0	0
4.015986099044309	0	1.48352986419518	0	1.313645006536685	0	0	0
4.020156385751521	0	1.48352986419518	0	1.310709580059926	0	0	0
4.024326672458732	0	1.48352986419518	0	1.307781478518383	0	0	0
4.028496959165943	0	1.48352986419518	0	1.304860949289428	0	0	0
4.032667245873154	0	1.48352986419518	0	1.301948238753412	0	0	0
4.036837532580365	0	1.48352986419518	0	1.299043592259865	0	0	0
4.041007819287576	0	1.48352986419518	0	1.296147254093696	0	0	0
4.045178105994787	0	1.48352986419518	0	1.293259467441401	0	0	0
4.049348392701998	0	1.48352986419518	0	1.29038047435726	0	0	0
4.053518679409209	0	1.48352986419518	0	1.287510515729543	0	0	0
4.05768896611642	0	1.48352986419518	0	1.284649831246712	0	0	0
4.061859252823631	0	1.48352986419518	0	1.281798659363623	0	0	0
4.066029539530843	0	1.48352986419518	0	1.27895723726773	0	0	0
4.070199826238054	0	1.48352986419518	0	1.276125800845284	0	0	0
4.074370112945265	0	1.48352986419518	0	1.27330458464754	0	0	0
4.078540399652476	0	1.48352986419518	0	1.270493821856957	0	0	0
4.082710686359687	0	1.48352986419518	0	1.267693744253402	0	0	0
4.086880973066898	0	1.48352986419518	0	1.264904582180351	0	0	0
4.09105125977411	0	1.48352986419518	0	1.262126564511092	0	0	0
4.095221546481321	0	1.48352986419518	0	1.259359918614928	0	0	0
4.099391833188532	0	1.48352986419518	0	1.256604870323381	0	0	0
4.103562119895743	0	1.48352986419518	0	1.253861643896392	0	0	0
4.107732406602954	0	1.48352986419518	0	1.251130461988524	0	0	0
4.111902693310165	0	1.48352986419518	0	1.248411545615168	0	0	0
4.116072980017377	0	1.48352986419518	0	1.245705114118739	0	0	0
4.120243266724588	0	1.48352986419518	0	1.243011385134886	0	0	0
4.124413553431799	0	1.48352986419518	0	1.240330574558688	0	0	0
4.12858384013901	0	1.48352986419518	0	1.237662896510863	0	0	0
4.132754126846221	0	1.48352986419518	0	1.235008563303964	0	0	0
4.136924413553432	0	1.48352986419518	0	1.232367785408587	0	0	0
4.141094700260643	0	1.48352986419518	0	1.229740771419569	0	0	0
4.145264986967854	0	1.48352986419518	0	1.227127728022197	0	0	0
4.149435273675065	0	1.48352986419518	0	1.224528859958403	0	0	0
4.153605560382276	0	1.48352986419518	0	1.221944369992971	0	0	0
4.157775847089487	0	1.48352986419518	0	1.219374458879738	0	0	0
4.161946133796699	0	1.48352986419518	0	1.2168193253278	0	0	0
4.16611642050391	0	1.48352986419518	0	1.214279165967709	0	0	0
4.170286707211121	0	1.48352986419518	0	1.21175417531768	0	0	0
4.174456993918332	0	1.48352986419518	0	1.209244545749792	0	0	0
4.178627280625543	0	1.48352986419518	0	1.206750467456189	0	0	0
4.182797567332754	0	1.48352986419518	0	1.204272128415287	0	0	0
4.186967854039965	0	1.48352986419518	0	1.201809714357971	0	0	0
4.191138140747176	0	1.48352986419518	0	1.199363408733802	0	0	0
4.195308427454387	0	1.48352986419518	0	1.196933392677218	0	0	0
4.199478714161598	0	1.48352986419518	0	1.194519844973736	0	0	0
4.203649000868809	0	1.48352986419518	0	1.192122942026155	0	0	0
4.207819287576021	0	1.48352986419518	0	1.189742857820759	0	0	0
4.211989574283233	0	1.48352986419518	0	1.18737976389352	0	0	0
4.216159860990444	0	1.48352986419518	0	1.185033829296299	0	0	0
4.220330147697655	0	1.48352986419518	0	1.182705220563049	0	0	0
4.224500434404866	0	1.48352986419518	0	1.180394101676019	0	0	0
4.228670721112077	0	1.48352986419518	0	1.178100634031955	0	0	0
4.232841007819288	0	1.48352986419518	0	1.175824976408304	0	0	0
4.237011294526499	0	1.48352986419518	0	1.173567284929417	0	0	0
4.24118158123371	0	1.48352986419518	0	1.171327713032745	0	0	0
4.245351867940921	0	1.48352986419518	0	1.169106411435054	0	0	0
4.249522154648132	0	1.48352986419518	0	1.166903528098616	0	0	0
4.253692441355343	0	1.48352986419518	0	1.164719208197418	0	0	0
4.257862728062555	0	1.48352986419518	0	1.16255359408336	0	0	0
4.262033014769766	0	1.48352986419518	0	1.160406825252464	0	0	0
4.266203301476977	0	1.48352986419518	0	1.158279038311072	0	0	0
4.270373588184188	0	1.48352986419518	0	1.156170366942048	0	0	0
4.274543874891399	0	1.48352986419518	0	1.154080941870983	0	0	0
4.27871416159861	0	1.48352986419518	0	1.152010890832397	0	0	0
4.282884448305821	0	1.48352986419518	0	1.149960338535939	0	0	0
4.287054735013032	0	1.48352986419518	0	1.147929406632594	0	0	0
4.291225021720243	0	1.48352986419518	0	1.145918213680884	0	0	0
4.295395308427454	0	1.48352986419518	0	1.143926875113068	0	0	0
4.299565595134665	0	1.48352986419518	0	1.141955503201347	0	0	0
4.303735881841876	0	1.48352986419518	0	1.140004207024066	0	0	0
4.307906168549088	0	1.48352986419518	0	1.138073092431919	0	0	0
4.312076455256299	0	1.48352986419518	0	1.136162262014148	0	0	0
4.31624674196351	0	1.48352986419518	0	1.134271815064744	0	0	0
4.320417028670721	0	1.48352986419518	0	1.132401847548655	0	0	0
4.324587315377932	0	1.48352986419518	0	1.130552452067988	0	0	0
4.328757602085143	0	1.48352986419518	0	1.128723717828206	0	0	0
